<svg xmlns="http://www.w3.org/2000/svg" viewBox="0 0 435.4 343.67"><defs><style>.cls-1{fill:#b7e1f8;}.cls-1,.cls-10,.cls-11,.cls-12,.cls-13,.cls-14,.cls-15,.cls-16,.cls-17,.cls-18,.cls-2,.cls-20,.cls-21,.cls-24,.cls-25,.cls-26,.cls-27,.cls-28,.cls-29,.cls-30,.cls-31,.cls-32,.cls-33,.cls-34,.cls-35,.cls-36,.cls-38,.cls-4,.cls-5,.cls-8,.cls-9{fill-rule:evenodd;}.cls-2,.cls-7{fill:#fff;}.cls-3{fill:#b2323a;}.cls-4{fill:#c44345;}.cls-5{fill:#da4346;}.cls-35,.cls-6{fill:#9cc6e0;}.cls-8{fill:#78c9d9;}.cls-23,.cls-9{fill:#d84f50;}.cls-10,.cls-19{fill:#a36e4e;}.cls-11,.cls-22{fill:#0c0e0e;}.cls-12{fill:#fffaf9;}.cls-14{fill:#794c34;}.cls-15{fill:#fadfd3;}.cls-16{fill:#7cbee2;}.cls-17{fill:#aabd46;}.cls-18{fill:#ccde6f;}.cls-20{fill:#7897a8;}.cls-21{fill:#252626;}.cls-24{fill:#a62a34;}.cls-25{fill:#e2ecf7;}.cls-26{fill:#e8685b;}.cls-27{fill:#f4ad85;}.cls-28{fill:#f6bb98;}.cls-29{fill:#ef8871;}.cls-30{fill:#d64341;}.cls-31{fill:#f8caae;}.cls-32{fill:#222221;}.cls-33{fill:#373736;}.cls-34{fill:#dedede;}.cls-36{fill:#be865e;}.cls-37{fill:#915e40;}.cls-38{fill:#d49d80;}</style></defs><g id="Layer_2" data-name="Layer 2"><g id="OBJECTS"><path class="cls-1" d="M70,343.67a70.18,70.18,0,0,1-70-70H0a70.18,70.18,0,0,1,70-70h0a29.68,29.68,0,0,0,29.59-29.59h0A29.67,29.67,0,0,0,70,144.53H66.46A30.86,30.86,0,0,1,35.7,113.76h0A30.85,30.85,0,0,1,66.46,83h10.8a12,12,0,0,0,12-12h0a12,12,0,0,0-12-12H69.33a8.29,8.29,0,0,1-8.27-8.27h0a8.29,8.29,0,0,1,8.27-8.26h53.36a13,13,0,0,0,13-13h0a13,13,0,0,0-13-13h-16a8.29,8.29,0,0,1-8.26-8.26h0A8.29,8.29,0,0,1,106.73,0h233.7a10.82,10.82,0,0,1,10.79,10.79h0a10.82,10.82,0,0,1-10.79,10.78H324.07a17,17,0,0,0-16.95,17h0a17,17,0,0,0,16.95,16.95h63.3a10.82,10.82,0,0,1,10.79,10.79h0A10.82,10.82,0,0,1,387.37,77H377a15.68,15.68,0,0,0-15.63,15.63h0A15.68,15.68,0,0,0,377,108.3h14.1a40.25,40.25,0,0,1,40.14,40.14h0a40.26,40.26,0,0,1-40.14,40.15h-4.6A38.72,38.72,0,0,0,347.9,227.2h0a38.72,38.72,0,0,0,38.61,38.61h9.95a39,39,0,0,1,38.94,38.93h0a39,39,0,0,1-38.94,38.93ZM368,21.57a10.79,10.79,0,1,0-10.79-10.78A10.79,10.79,0,0,0,368,21.57ZM46.13,59a8.27,8.27,0,1,0-8.27-8.27A8.27,8.27,0,0,0,46.13,59Z"/><path class="cls-2" d="M230.18,32.89a2.43,2.43,0,1,0-2.43-2.43A2.43,2.43,0,0,0,230.18,32.89Z"/><rect class="cls-3" x="103.49" y="108.57" width="44.28" height="27.07" rx="1.97"/><path class="cls-4" d="M147.75,134a2,2,0,0,1-1.94,1.63H105.46a2,2,0,0,1-1.94-1.63l22.12-15.34Z"/><path class="cls-5" d="M105.46,108.57h40.35a2,2,0,0,1,1.45.64l-21.62,15-21.63-15A2,2,0,0,1,105.46,108.57Z"/><rect class="cls-6" x="313.17" y="167.49" width="17.3" height="17.3" rx="2.36"/><rect class="cls-6" x="313.17" y="189.28" width="17.3" height="17.3" rx="2.36"/><rect class="cls-6" x="313.17" y="211.07" width="17.3" height="17.3" rx="2.36"/><rect class="cls-6" x="313.17" y="232.86" width="17.3" height="17.3" rx="2.36"/><rect class="cls-7" x="311.21" y="165.83" width="17.3" height="17.3" rx="2.36"/><rect class="cls-7" x="311.21" y="187.62" width="17.3" height="17.3" rx="2.36"/><rect class="cls-7" x="311.21" y="209.41" width="17.3" height="17.3" rx="2.36"/><rect class="cls-7" x="311.21" y="231.19" width="17.3" height="17.3" rx="2.36"/><path class="cls-8" d="M315,176.39a1,1,0,0,1,1.49-1.42l1.86,1.93,4.86-7.05a1,1,0,1,1,1.69,1.17l-5.55,8.06a1.35,1.35,0,0,1-.16.19,1,1,0,0,1-1.45,0Z"/><path class="cls-9" d="M317.48,200.69a1,1,0,0,1-1.57-1.33l2.6-3.09-2.6-3.09a1,1,0,1,1,1.57-1.33l2.38,2.82,2.38-2.82a1,1,0,0,1,1.46-.13,1.05,1.05,0,0,1,.12,1.46l-2.61,3.09,2.61,3.09a1,1,0,0,1-1.58,1.33l-2.38-2.83Z"/><path class="cls-8" d="M315,220a1,1,0,0,1,1.49-1.43l1.86,1.94,4.86-7.06a1,1,0,0,1,1.43-.26,1,1,0,0,1,.26,1.43l-5.55,8.07a1.35,1.35,0,0,1-.16.19,1,1,0,0,1-1.45,0Z"/><path class="cls-2" d="M341.08,268.59c.8,1,8.84,5.44,8.84,5.44l-3,42s-.08,4.45-5.14,4.45H325.42c-5.07,0-5.15-4.45-5.15-4.45l-3-42s8-4.45,8.84-5.44Z"/><path class="cls-10" d="M349.21,283H318a1.09,1.09,0,0,0-1.08,1.16l1.87,26.42a1.07,1.07,0,0,0,1.08,1h27.46a1.07,1.07,0,0,0,1.08-1l1.86-26.42a1,1,0,0,0-.28-.81A1.05,1.05,0,0,0,349.21,283Z"/><path class="cls-2" d="M344.92,265.75H322.29a5,5,0,0,0-5,5h0a5,5,0,0,0,5,5h22.63a5,5,0,0,0,5-5h0A5,5,0,0,0,344.92,265.75Z"/><path class="cls-10" d="M350.57,270.73H316.64a2.81,2.81,0,0,0-2.8,2.8h0a2.81,2.81,0,0,0,2.8,2.81h33.93a2.81,2.81,0,0,0,2.81-2.81h0A2.81,2.81,0,0,0,350.57,270.73Z"/><path class="cls-11" d="M333.61,307.78a10.5,10.5,0,1,0-10.5-10.5A10.52,10.52,0,0,0,333.61,307.78Z"/><path class="cls-12" d="M333.61,306.53a9.25,9.25,0,1,0-9.24-9.25A9.27,9.27,0,0,0,333.61,306.53Z"/><path class="cls-13" d="M333.61,289.85h0a4.48,4.48,0,0,0-4.47,4.47v5.93a4.5,4.5,0,0,0,3,4.21v-4.75c0-1.62.26-1.86.88-2.45a3.46,3.46,0,0,0,.3-.28,5.87,5.87,0,0,1,.46-.41c.59-.49,1.2-1,1.2-2.91v-3.6a4.59,4.59,0,0,0-1.35-.21ZM333,304.67v-5c0-1.25.17-1.41.6-1.81l.33-.31a4.64,4.64,0,0,1,.4-.36c.74-.62,1.51-1.26,1.51-3.57v-3.21a4.47,4.47,0,0,1,2.25,3.87v5.93a4.48,4.48,0,0,1-4.47,4.46h0A4.21,4.21,0,0,1,333,304.67Z"/><path class="cls-14" d="M316,271.63a2.82,2.82,0,0,0,1.34,2.39,2.74,2.74,0,0,0,1.47.42h33.93a3.07,3.07,0,0,0,.53-.05,2.83,2.83,0,0,1-2.68,1.95H316.64a2.8,2.8,0,0,1-.52-5.56A2.7,2.7,0,0,0,316,271.63Z"/><path class="cls-15" d="M319.61,266.53a5,5,0,0,0,4.58,3h22.63a5,5,0,0,0,2.69-.79,5,5,0,0,1,.41,2H317.3A5,5,0,0,1,319.61,266.53Z"/><path class="cls-15" d="M322.56,278.75a1.23,1.23,0,0,0-.91.39,1.24,1.24,0,0,0-.33.94l.21,2.91h-3.59l-.48-6.66h32.29l-.17,2.41Zm1.31,32.82.34,4.79a1.15,1.15,0,0,0,1.15,1.08h21.29c-.46,1.31-1.67,3.08-4.86,3.08H325.4c-5.06,0-5.14-4.45-5.14-4.45l-.32-4.5Z"/><path class="cls-14" d="M321.39,284.15l1.87,26.42a1.07,1.07,0,0,0,1.08,1h-4.46a1.07,1.07,0,0,1-1.08-1l-1.87-26.42a1,1,0,0,1,.29-.81,1,1,0,0,1,.72-.34h4.53a1.09,1.09,0,0,0-1.08,1.16Z"/><path class="cls-16" d="M78.76,160.93h60.56a5.6,5.6,0,0,1,5.59,5.58v31.05a.63.63,0,0,1-1.07.44l-9.51-9.51H78.76a5.6,5.6,0,0,1-5.58-5.59V166.51A5.6,5.6,0,0,1,78.76,160.93Z"/><path class="cls-2" d="M86.11,178.8l-7.26-3.2v-1l7.26-3.63v1.76l-5,2.32,5,2.05v1.75Zm2.66-2.06v-.55a2.43,2.43,0,0,1,.31-1.22,3.85,3.85,0,0,1,1.09-1.1,4.62,4.62,0,0,0,1-.89,1.27,1.27,0,0,0,.25-.77.82.82,0,0,0-.35-.72,1.65,1.65,0,0,0-1-.25,5.69,5.69,0,0,0-2.5.71l-.8-1.6a7.07,7.07,0,0,1,3.46-.91,3.73,3.73,0,0,1,2.4.72,2.38,2.38,0,0,1,.88,1.94,2.58,2.58,0,0,1-.36,1.38,5.4,5.4,0,0,1-1.39,1.32,4.26,4.26,0,0,0-.89.79,1.24,1.24,0,0,0-.19.71v.44Zm-.23,2.5a1.23,1.23,0,0,1,.33-.93,1.34,1.34,0,0,1,1-.32,1.28,1.28,0,0,1,.94.33,1.42,1.42,0,0,1,0,1.83,1.26,1.26,0,0,1-.93.33,1.33,1.33,0,0,1-1-.32,1.21,1.21,0,0,1-.34-.92Zm9-4.62h.75a2.47,2.47,0,0,0,1.57-.41,1.72,1.72,0,0,0,.08-2.38,2,2,0,0,0-1.36-.38h-1v3.17Zm5.13-1.7a3.31,3.31,0,0,1-1.08,2.65,4.63,4.63,0,0,1-3.07.91h-1v3.81H95.25v-10.7h3.41a4.52,4.52,0,0,1,3,.84,3,3,0,0,1,1,2.49Zm10.78,7.37h-2.26v-4.62h-4.24v4.62h-2.26v-10.7h2.26v4.19h4.24v-4.19h2.26v10.7Zm5-5.67h.75a2.47,2.47,0,0,0,1.57-.41,1.72,1.72,0,0,0,.08-2.38,2,2,0,0,0-1.36-.38h-1v3.17Zm5.13-1.7a3.28,3.28,0,0,1-1.08,2.65,4.63,4.63,0,0,1-3.07.91h-1v3.81h-2.26v-10.7h3.41a4.57,4.57,0,0,1,3,.84,3.06,3.06,0,0,1,1,2.49Zm2.69,3.82v-.55a2.42,2.42,0,0,1,.3-1.22,3.9,3.9,0,0,1,1.1-1.1,4.88,4.88,0,0,0,1-.89,1.32,1.32,0,0,0,.24-.77.8.8,0,0,0-.35-.72,1.63,1.63,0,0,0-1-.25,5.73,5.73,0,0,0-2.5.71l-.79-1.6a7,7,0,0,1,3.45-.91,3.69,3.69,0,0,1,2.4.72,2.39,2.39,0,0,1,.89,1.94,2.5,2.5,0,0,1-.37,1.38,5.08,5.08,0,0,1-1.39,1.32,4.55,4.55,0,0,0-.89.79,1.24,1.24,0,0,0-.18.71v.44Zm-.23,2.5a1.26,1.26,0,0,1,.32-.93,1.34,1.34,0,0,1,1-.32,1.27,1.27,0,0,1,.94.33,1.22,1.22,0,0,1,.33.92,1.24,1.24,0,0,1-.33.91,1.28,1.28,0,0,1-.94.33,1.33,1.33,0,0,1-1-.32,1.25,1.25,0,0,1-.33-.92Zm6-2.19,5-2.05-5-2.32v-1.76l7.27,3.63v1L132,178.8Z"/><path class="cls-17" d="M95.66,299.35,98.57,303H111.8l2.91-3.65C125.16,271.16,85.21,271.16,95.66,299.35Z"/><path class="cls-18" d="M99.43,299.35l1.76,3.65h8l1.76-3.65C117.26,271.16,93.11,271.16,99.43,299.35Z"/><rect class="cls-19" x="92.41" y="297.01" width="25.54" height="9.33" rx="1.43"/><polygon class="cls-10" points="112.75 302.28 97.62 302.28 93.67 306.35 96.89 320.52 105.18 320.52 113.47 320.52 116.7 306.35 112.75 302.28"/><polygon class="cls-14" points="93.67 306.35 94.33 309.14 116.04 309.14 116.7 306.35 93.67 306.35"/><path class="cls-9" d="M82.92,215.31H84.4a.66.66,0,0,1,.66.66h0a.65.65,0,0,1-.66.66H82.92a.66.66,0,0,1-.67-.66h0A.67.67,0,0,1,82.92,215.31Z"/><path class="cls-9" d="M81.5,225.55H73.13a.65.65,0,0,0-.66.66h0a.66.66,0,0,0,.66.66H81.5a.66.66,0,0,0,.66-.66h0A.65.65,0,0,0,81.5,225.55Z"/><path class="cls-9" d="M88.81,230.28h7a.67.67,0,0,1,.66.66h0a.67.67,0,0,1-.66.67h-7a.67.67,0,0,1-.67-.67h0A.67.67,0,0,1,88.81,230.28Z"/><path class="cls-9" d="M93.79,239.2h2a.67.67,0,0,1,.66.66h0a.66.66,0,0,1-.66.66h-2a.65.65,0,0,1-.66-.66h0A.66.66,0,0,1,93.79,239.2Z"/><path class="cls-9" d="M56.27,248.67H76.7a.67.67,0,0,1,.66.66h0a.67.67,0,0,1-.66.66H56.27a.67.67,0,0,1-.66-.66h0A.67.67,0,0,1,56.27,248.67Z"/><path class="cls-9" d="M81.5,253.41H73.13a.65.65,0,0,0-.66.66h0a.66.66,0,0,0,.66.66H81.5a.66.66,0,0,0,.66-.66h0A.65.65,0,0,0,81.5,253.41Z"/><path class="cls-9" d="M88.81,258.14h7a.67.67,0,0,1,.66.66h0a.67.67,0,0,1-.66.67h-7a.67.67,0,0,1-.67-.67h0A.67.67,0,0,1,88.81,258.14Z"/><path class="cls-9" d="M93.79,267.06h2a.67.67,0,0,1,.66.66h0a.66.66,0,0,1-.66.66h-2a.65.65,0,0,1-.66-.66h0A.66.66,0,0,1,93.79,267.06Z"/><path class="cls-9" d="M56.27,276.53H76.7a.67.67,0,0,1,.66.66h0a.67.67,0,0,1-.66.66H56.27a.67.67,0,0,1-.66-.66h0A.67.67,0,0,1,56.27,276.53Z"/><path class="cls-20" d="M111.64,215.31h10.75a.67.67,0,0,1,.66.66h0a.66.66,0,0,1-.66.66H111.64A.66.66,0,0,1,111,216h0A.67.67,0,0,1,111.64,215.31Z"/><path class="cls-20" d="M71.32,219.77H92.38a.67.67,0,0,1,.66.66h0a.66.66,0,0,1-.66.66H71.32a.66.66,0,0,1-.67-.66h0A.67.67,0,0,1,71.32,219.77Z"/><path class="cls-20" d="M96,219.77h-.85a.66.66,0,0,0-.66.66h0a.65.65,0,0,0,.66.66H96a.65.65,0,0,0,.66-.66h0A.66.66,0,0,0,96,219.77Z"/><path class="cls-20" d="M122.39,219.77H98.68a.67.67,0,0,0-.66.66h0a.66.66,0,0,0,.66.66h23.71a.66.66,0,0,0,.66-.66h0A.67.67,0,0,0,122.39,219.77Z"/><path class="cls-20" d="M88.17,215.31h20.08a.66.66,0,0,1,.66.66h0a.65.65,0,0,1-.66.66H88.17a.66.66,0,0,1-.66-.66h0A.67.67,0,0,1,88.17,215.31Z"/><path class="cls-20" d="M39.69,225.55H69.9a.65.65,0,0,1,.66.66h0a.66.66,0,0,1-.66.66H39.69a.67.67,0,0,1-.66-.66h0A.66.66,0,0,1,39.69,225.55Z"/><path class="cls-20" d="M84.37,225.55h30.21a.66.66,0,0,1,.66.66h0a.67.67,0,0,1-.66.66H84.37a.67.67,0,0,1-.67-.66h0A.66.66,0,0,1,84.37,225.55Z"/><path class="cls-20" d="M99.86,230.28h10.91a.66.66,0,0,1,.66.66h0a.66.66,0,0,1-.66.67H99.86a.67.67,0,0,1-.66-.67h0A.67.67,0,0,1,99.86,230.28Z"/><path class="cls-20" d="M37.52,230.28h47.7a.67.67,0,0,1,.66.66h0a.67.67,0,0,1-.66.67H37.52a.67.67,0,0,1-.67-.67h0A.67.67,0,0,1,37.52,230.28Z"/><path class="cls-20" d="M63.07,234.8h47.7a.65.65,0,0,1,.66.66h0a.66.66,0,0,1-.66.66H63.07a.67.67,0,0,1-.66-.66h0A.66.66,0,0,1,63.07,234.8Z"/><path class="cls-20" d="M99.86,239.2h10.91a.66.66,0,0,1,.66.66h0a.65.65,0,0,1-.66.66H99.86a.66.66,0,0,1-.66-.66h0A.67.67,0,0,1,99.86,239.2Z"/><path class="cls-20" d="M56.27,239.2H89.93a.67.67,0,0,1,.66.66h0a.66.66,0,0,1-.66.66H56.27a.66.66,0,0,1-.66-.66h0A.67.67,0,0,1,56.27,239.2Z"/><path class="cls-20" d="M63.07,243.93h52.78a.67.67,0,0,1,.66.67h0a.67.67,0,0,1-.66.66H63.07a.67.67,0,0,1-.66-.66h0A.67.67,0,0,1,63.07,243.93Z"/><path class="cls-20" d="M81.46,248.67h34.39a.67.67,0,0,1,.66.66h0a.67.67,0,0,1-.66.66H81.46a.67.67,0,0,1-.66-.66h0A.67.67,0,0,1,81.46,248.67Z"/><path class="cls-20" d="M39.69,253.41H69.9a.65.65,0,0,1,.66.66h0a.66.66,0,0,1-.66.66H39.69a.67.67,0,0,1-.66-.66h0A.66.66,0,0,1,39.69,253.41Z"/><path class="cls-20" d="M84.37,253.41h30.21a.66.66,0,0,1,.66.66h0a.67.67,0,0,1-.66.66H84.37a.67.67,0,0,1-.67-.66h0A.66.66,0,0,1,84.37,253.41Z"/><path class="cls-20" d="M99.86,258.14h10.91a.66.66,0,0,1,.66.66h0a.66.66,0,0,1-.66.67H99.86a.67.67,0,0,1-.66-.67h0A.67.67,0,0,1,99.86,258.14Z"/><path class="cls-20" d="M37.52,258.14h47.7a.67.67,0,0,1,.66.66h0a.67.67,0,0,1-.66.67H37.52a.67.67,0,0,1-.67-.67h0A.67.67,0,0,1,37.52,258.14Z"/><path class="cls-20" d="M63.07,262.66h47.7a.65.65,0,0,1,.66.66h0a.66.66,0,0,1-.66.66H63.07a.67.67,0,0,1-.66-.66h0A.66.66,0,0,1,63.07,262.66Z"/><path class="cls-20" d="M99.86,267.06h10.91a.66.66,0,0,1,.66.66h0a.65.65,0,0,1-.66.66H99.86a.66.66,0,0,1-.66-.66h0A.67.67,0,0,1,99.86,267.06Z"/><path class="cls-20" d="M56.27,267.06H89.93a.67.67,0,0,1,.66.66h0a.66.66,0,0,1-.66.66H56.27a.66.66,0,0,1-.66-.66h0A.67.67,0,0,1,56.27,267.06Z"/><path class="cls-20" d="M63.07,271.79h52.78a.67.67,0,0,1,.66.67h0a.67.67,0,0,1-.66.66H63.07a.67.67,0,0,1-.66-.66h0A.67.67,0,0,1,63.07,271.79Z"/><path class="cls-20" d="M81.46,276.53h34.39a.67.67,0,0,1,.66.66h0a.67.67,0,0,1-.66.66H81.46a.67.67,0,0,1-.66-.66h0A.67.67,0,0,1,81.46,276.53Z"/><path class="cls-16" d="M251.71,36.07h41.34a5.47,5.47,0,0,1,5.46,5.46V75.05a.6.6,0,0,1-1,.43l-9.3-9.3H251.71a5.48,5.48,0,0,1-5.46-5.46V41.53A5.48,5.48,0,0,1,251.71,36.07Z"/><path class="cls-2" d="M261.58,56.4h-2.27V51.78h-4.24V56.4h-2.28V45.68h2.28v4.2h4.24v-4.2h2.27V56.4Zm6.85,0h-2.28V47.57h-2.91V45.68h8.1v1.89h-2.91V56.4Zm9.1,0L275,48h-.07c.1,1.71.14,2.85.14,3.42v5h-2V45.68h3.1l2.53,8.2h.05l2.69-8.2h3.1V56.4h-2.12V51.33c0-.24,0-.52,0-.83s0-1.15.1-2.5h-.07l-2.76,8.4Zm9.63,0V45.68h2.27v8.85h4.35V56.4Z"/><path class="cls-2" d="M77.37,117.41A2.43,2.43,0,1,0,74.94,115,2.43,2.43,0,0,0,77.37,117.41Z"/><path class="cls-2" d="M289.75,180.84a2.43,2.43,0,1,0-2.43-2.43A2.44,2.44,0,0,0,289.75,180.84Z"/><path class="cls-2" d="M346.06,79.64a2.44,2.44,0,1,0-2.43-2.44A2.44,2.44,0,0,0,346.06,79.64Z"/><path class="cls-2" d="M388.11,305.56a2.43,2.43,0,1,0-2.43-2.43A2.43,2.43,0,0,0,388.11,305.56Z"/><path class="cls-2" d="M56,306.28a2.44,2.44,0,1,0-2.44-2.44A2.43,2.43,0,0,0,56,306.28Z"/><path class="cls-2" d="M180,24.12A1.11,1.11,0,1,0,178.89,23,1.11,1.11,0,0,0,180,24.12Z"/><path class="cls-2" d="M104.45,89.68a1.11,1.11,0,1,0-1.1-1.1A1.11,1.11,0,0,0,104.45,89.68Z"/><path class="cls-6" d="M284.38,95.17h68a3.53,3.53,0,0,1,3.53,3.53v51.87a3.52,3.52,0,0,1-3.52,3.52h-68a3.52,3.52,0,0,1-3.52-3.52V98.69A3.53,3.53,0,0,1,284.38,95.17Z"/><path class="cls-7" d="M282.55,93.29h68a3.53,3.53,0,0,1,3.53,3.53v51.87a3.53,3.53,0,0,1-3.53,3.53h-68a3.53,3.53,0,0,1-3.53-3.53V96.82A3.52,3.52,0,0,1,282.55,93.29Z"/><path class="cls-21" d="M282.55,93.29h68a3.53,3.53,0,0,1,3.52,3.53v4.86a1,1,0,0,1-1,1H280a1,1,0,0,1-1-1V96.82A3.53,3.53,0,0,1,282.55,93.29Z"/><path class="cls-11" d="M284.73,106.6h19.06a.74.74,0,0,1,.73.74h0a.73.73,0,0,1-.73.73H284.73a.73.73,0,0,1-.73-.73h0A.74.74,0,0,1,284.73,106.6Z"/><path class="cls-11" d="M303.79,109.83h-8.52a.74.74,0,0,0-.73.74h0a.73.73,0,0,0,.73.73h8.52a.73.73,0,0,0,.73-.73h0A.74.74,0,0,0,303.79,109.83Z"/><path class="cls-11" d="M291.56,109.83h.68a.74.74,0,0,1,.73.74h0a.73.73,0,0,1-.73.73h-.68a.73.73,0,0,1-.73-.73h0A.74.74,0,0,1,291.56,109.83Z"/><path class="cls-11" d="M284.73,109.83H289a.74.74,0,0,1,.73.74h0a.73.73,0,0,1-.73.73h-4.27a.73.73,0,0,1-.73-.73h0A.74.74,0,0,1,284.73,109.83Z"/><rect class="cls-22" x="284" y="113.67" width="20.52" height="1.47" rx="0.73"/><path class="cls-11" d="M284.73,116.9h8.51a.74.74,0,0,1,.74.73h0a.74.74,0,0,1-.74.73h-8.51a.73.73,0,0,1-.73-.73h0A.73.73,0,0,1,284.73,116.9Z"/><path class="cls-11" d="M297,116.9h-.68a.73.73,0,0,0-.73.73h0a.73.73,0,0,0,.73.73H297a.73.73,0,0,0,.73-.73h0A.73.73,0,0,0,297,116.9Z"/><path class="cls-11" d="M303.79,116.9h-4.27a.73.73,0,0,0-.73.73h0a.73.73,0,0,0,.73.73h4.27a.73.73,0,0,0,.73-.73h0A.73.73,0,0,0,303.79,116.9Z"/><rect class="cls-22" x="284" y="120.73" width="20.52" height="1.46" rx="0.73"/><path class="cls-11" d="M303.79,124h-8.52a.73.73,0,0,0-.73.73h0a.74.74,0,0,0,.73.74h8.52a.74.74,0,0,0,.73-.74h0A.73.73,0,0,0,303.79,124Z"/><path class="cls-11" d="M291.56,124h.68a.73.73,0,0,1,.73.73h0a.74.74,0,0,1-.73.74h-.68a.74.74,0,0,1-.73-.74h0A.73.73,0,0,1,291.56,124Z"/><path class="cls-11" d="M284.73,124H289a.73.73,0,0,1,.73.73h0a.74.74,0,0,1-.73.74h-4.27a.74.74,0,0,1-.73-.74h0A.73.73,0,0,1,284.73,124Z"/><path class="cls-11" d="M284.73,127.79h19.06a.74.74,0,0,1,.73.74h0a.73.73,0,0,1-.73.73H284.73a.73.73,0,0,1-.73-.73h0A.74.74,0,0,1,284.73,127.79Z"/><path class="cls-11" d="M284.73,131h8.51a.73.73,0,0,1,.74.73h0a.74.74,0,0,1-.74.73h-8.51a.73.73,0,0,1-.73-.73h0A.73.73,0,0,1,284.73,131Z"/><path class="cls-11" d="M303.11,131h.68a.73.73,0,0,1,.73.73h0a.73.73,0,0,1-.73.73h-.68a.73.73,0,0,1-.73-.73h0A.73.73,0,0,1,303.11,131Z"/><path class="cls-11" d="M296.28,131h4.27a.73.73,0,0,1,.73.73h0a.73.73,0,0,1-.73.73h-4.27a.73.73,0,0,1-.73-.73h0A.73.73,0,0,1,296.28,131Z"/><rect class="cls-22" x="284" y="134.86" width="20.52" height="1.46" rx="0.73"/><rect class="cls-22" x="287.71" y="138.09" width="9.98" height="1.46" rx="0.73"/><rect class="cls-22" x="284" y="138.09" width="2.14" height="1.46" rx="0.73"/><rect class="cls-22" x="298.79" y="138.09" width="5.73" height="1.46" rx="0.73"/><rect class="cls-22" x="284" y="141.92" width="20.52" height="1.46" rx="0.73"/><path class="cls-11" d="M284.73,145.15h8.51a.74.74,0,0,1,.74.74h0a.74.74,0,0,1-.74.73h-8.51a.73.73,0,0,1-.73-.73h0A.74.74,0,0,1,284.73,145.15Z"/><path class="cls-11" d="M297,145.15h-.68a.74.74,0,0,0-.73.74h0a.73.73,0,0,0,.73.73H297a.73.73,0,0,0,.73-.73h0A.74.74,0,0,0,297,145.15Z"/><path class="cls-11" d="M303.79,145.15h-4.27a.74.74,0,0,0-.73.74h0a.73.73,0,0,0,.73.73h4.27a.73.73,0,0,0,.73-.73h0A.74.74,0,0,0,303.79,145.15Z"/><path class="cls-9" d="M316,106.6h32.25a.74.74,0,0,1,.73.74h0a.73.73,0,0,1-.73.73H316a.73.73,0,0,1-.73-.73h0A.74.74,0,0,1,316,106.6Z"/><path class="cls-9" d="M348.23,109.83H333.3a.74.74,0,0,0-.73.74h0a.73.73,0,0,0,.73.73h14.93a.73.73,0,0,0,.73-.73h0A.74.74,0,0,0,348.23,109.83Z"/><path class="cls-9" d="M327.2,109.83h2.05a.73.73,0,0,1,.73.74h0a.73.73,0,0,1-.73.73H327.2a.73.73,0,0,1-.73-.73h0A.74.74,0,0,1,327.2,109.83Z"/><path class="cls-9" d="M316,109.83h7.95a.74.74,0,0,1,.73.74h0a.73.73,0,0,1-.73.73H316a.73.73,0,0,1-.73-.73h0A.74.74,0,0,1,316,109.83Z"/><rect class="cls-23" x="315.25" y="113.67" width="33.71" height="1.47" rx="0.73"/><path class="cls-9" d="M316,116.9h14.93a.73.73,0,0,1,.73.73h0a.73.73,0,0,1-.73.73H316a.73.73,0,0,1-.73-.73h0A.73.73,0,0,1,316,116.9Z"/><path class="cls-9" d="M337,116.9H335a.74.74,0,0,0-.74.73h0a.74.74,0,0,0,.74.73H337a.73.73,0,0,0,.73-.73h0A.73.73,0,0,0,337,116.9Z"/><path class="cls-9" d="M348.23,116.9h-8a.73.73,0,0,0-.73.73h0a.73.73,0,0,0,.73.73h8a.73.73,0,0,0,.73-.73h0A.73.73,0,0,0,348.23,116.9Z"/><rect class="cls-23" x="315.25" y="120.73" width="33.71" height="1.46" rx="0.73"/><path class="cls-9" d="M348.23,124H333.3a.73.73,0,0,0-.73.73h0a.74.74,0,0,0,.73.74h14.93a.74.74,0,0,0,.73-.74h0A.73.73,0,0,0,348.23,124Z"/><path class="cls-9" d="M327.2,124h2.05a.73.73,0,0,1,.73.73h0a.73.73,0,0,1-.73.74H327.2a.74.74,0,0,1-.73-.74h0A.73.73,0,0,1,327.2,124Z"/><path class="cls-9" d="M316,124h7.95a.73.73,0,0,1,.73.73h0a.74.74,0,0,1-.73.74H316a.74.74,0,0,1-.73-.74h0A.73.73,0,0,1,316,124Z"/><path class="cls-9" d="M316,127.79h32.25a.74.74,0,0,1,.73.74h0a.73.73,0,0,1-.73.73H316a.73.73,0,0,1-.73-.73h0A.74.74,0,0,1,316,127.79Z"/><path class="cls-9" d="M316,131h14.93a.73.73,0,0,1,.73.73h0a.73.73,0,0,1-.73.73H316a.73.73,0,0,1-.73-.73h0A.73.73,0,0,1,316,131Z"/><path class="cls-9" d="M346.17,131h2.06a.73.73,0,0,1,.73.73h0a.73.73,0,0,1-.73.73h-2.06a.73.73,0,0,1-.73-.73h0A.73.73,0,0,1,346.17,131Z"/><path class="cls-9" d="M335,131h7.94a.73.73,0,0,1,.73.73h0a.73.73,0,0,1-.73.73H335a.74.74,0,0,1-.74-.73h0A.73.73,0,0,1,335,131Z"/><rect class="cls-23" x="315.25" y="134.86" width="33.71" height="1.46" rx="0.73"/><rect class="cls-23" x="321.35" y="138.09" width="16.39" height="1.46" rx="0.73"/><rect class="cls-23" x="315.25" y="138.09" width="3.52" height="1.46" rx="0.73"/><rect class="cls-23" x="339.55" y="138.09" width="9.41" height="1.46" rx="0.73"/><rect class="cls-23" x="315.25" y="141.92" width="33.71" height="1.46" rx="0.73"/><path class="cls-9" d="M316,145.15h14.93a.74.74,0,0,1,.73.74h0a.73.73,0,0,1-.73.73H316a.73.73,0,0,1-.73-.73h0A.74.74,0,0,1,316,145.15Z"/><path class="cls-9" d="M337,145.15H335a.74.74,0,0,0-.74.74h0a.74.74,0,0,0,.74.73H337a.73.73,0,0,0,.73-.73h0A.74.74,0,0,0,337,145.15Z"/><path class="cls-9" d="M348.23,145.15h-8a.74.74,0,0,0-.73.74h0a.73.73,0,0,0,.73.73h8a.73.73,0,0,0,.73-.73h0A.74.74,0,0,0,348.23,145.15Z"/><path class="cls-2" d="M336,99.67A1.69,1.69,0,1,0,334.28,98,1.69,1.69,0,0,0,336,99.67Z"/><path class="cls-2" d="M342.07,99.67A1.69,1.69,0,1,0,340.38,98,1.7,1.7,0,0,0,342.07,99.67Z"/><path class="cls-2" d="M348.17,99.67A1.69,1.69,0,1,0,346.48,98,1.7,1.7,0,0,0,348.17,99.67Z"/><path class="cls-2" d="M276.21,84.7a1.11,1.11,0,1,0-1.1-1.11A1.11,1.11,0,0,0,276.21,84.7Z"/><path class="cls-2" d="M149.67,144.88a1.11,1.11,0,1,0-1.1-1.1A1.11,1.11,0,0,0,149.67,144.88Z"/><path class="cls-2" d="M292.29,196.2a1.11,1.11,0,1,0-1.11-1.11A1.11,1.11,0,0,0,292.29,196.2Z"/><path class="cls-2" d="M370,275.31a1.11,1.11,0,1,0-1.11-1.11A1.11,1.11,0,0,0,370,275.31Z"/><path class="cls-2" d="M77.05,291a1.11,1.11,0,1,0-1.11-1.11A1.11,1.11,0,0,0,77.05,291Z"/><path class="cls-5" d="M169.22,192.06s-5,2.34-10.5,8.8c-3.95,4.62-20.33,48.21-30.2,75.68-2.45,6.8-12,30.51,7,44l4.1,3.67c6.3-13.08,22.06-47.86,22.06-47.86Z"/><path class="cls-24" d="M169.22,192.06s-5,2.34-10.5,8.8a28.14,28.14,0,0,0-2.77,5c1.35,6.82,1.14,16.13-2.49,28.77-11,38.33-6,59.11-1,61.3l.22.09c4.86-10.6,9-19.66,9-19.66l7.53-84.27Zm-44.66,98.33c-.28,11.2,9,20.83,19.87,23.61-1.85,4-3.52,7.53-4.8,10.19l-4.1-3.67C123.84,312.24,123,300.1,124.56,290.39Z"/><path class="cls-11" d="M262.76,122.28s1.3,23.22,9.66,38.13c0,0,2.7,3.56-.09,6.84s-20.61,17.85-51.62,22.09-61.28-21-62.07-24.29,9.5-27,8.69-47.05Z"/><path class="cls-13" d="M262.76,122.28a126.17,126.17,0,0,0,4.45,25.32c-5.29,4.37-16.36,15.65-15,32.73a111.92,111.92,0,0,1-31.52,9c-14.17,1.94-28.18-2.27-39.3-7.74a21.92,21.92,0,0,0-.22-16.61c-4.74-11.78-12.05-17-17.66-19.24,2.18-8.44,4.17-18.47,3.8-27.75Z"/><path class="cls-5" d="M267,192.06s5,2.34,10.5,8.8c3.94,4.62,20.32,48.21,30.2,75.68,2.44,6.8,12,30.51-7,44l-4.1,3.67c-6.31-13.08-22.07-47.86-22.07-47.86Z"/><path class="cls-24" d="M267,192.06s5,2.34,10.5,8.8a31.6,31.6,0,0,1,3,5.52c-1.23,6.76-.94,15.91,2.6,28.22,11,38.33,5.95,59.11.95,61.3l-.52.22c-4.89-10.66-9-19.79-9-19.79L267,192.06Zm45,100.41c-.84,10.4-9.79,19.1-20.14,21.61,1.84,3.94,3.5,7.47,4.77,10.11l4.1-3.67C311.55,312.82,313.08,301.79,312,292.47Z"/><path class="cls-5" d="M218,179.14s46.94,11.1,49.1,13.12,11.95,50.38,12,55.1c0,4.36-11.28,64.28-13.12,80.63h-95.9c-1.85-16.35-13.15-76.27-13.12-80.63,0-4.72,9.8-53.08,12-55.1S218,179.14,218,179.14Z"/><path class="cls-24" d="M218,179.14s46.94,11.1,49.1,13.12,11.95,50.38,12,55.1c0,4-9.5,54.82-12.49,75.78-34.08,2-53.59,17.49-35.65,12.32s16-39.42,16-47.07-18.27-23.74-7.84-31.19,23.52-46.61,20-51.06-36.35-19.78-36.35-19.78-10.42,3.45-10.22-5.91Z"/><path class="cls-2" d="M218,179.14s13.1,3,26,6.13a26.45,26.45,0,0,1-25.61,21.57h-.32a26.43,26.43,0,0,1-26.24-21.56C204.87,182.13,218,179.14,218,179.14Z"/><path class="cls-25" d="M218,179.14s13.1,3,26,6.13a26.37,26.37,0,0,1-3.87,9.62c-8.86-4.52-17.44-8.53-17.44-8.53s-10.42,3.45-10.22-5.91a.43.43,0,0,1,0,0Z"/><path class="cls-26" d="M217.4,144h.32a16.83,16.83,0,0,1,17,16.58l.23,19.73a16.83,16.83,0,0,1-16.59,17H218a16.84,16.84,0,0,1-17-16.59L200.81,161A16.84,16.84,0,0,1,217.4,144Z"/><path class="cls-26" d="M180.83,129.5l-.76.13h0a10.35,10.35,0,1,0,8.64,2.08c.26,3.06-.22,6.84-4.12,7.22l.11-6A3.57,3.57,0,0,0,180.83,129.5Z"/><path class="cls-26" d="M255.52,129.5l.76.13h0a10.35,10.35,0,1,1-8.64,2.08c-.26,3.06.22,6.84,4.12,7.22l-.11-6A3.56,3.56,0,0,1,255.52,129.5Z"/><path class="cls-27" d="M218.18,77.8h0a35.55,35.55,0,0,0-35.44,35.44v32.23a35.54,35.54,0,0,0,35.44,35.43h0a35.54,35.54,0,0,0,35.43-35.43V113.24A35.54,35.54,0,0,0,218.18,77.8Z"/><path class="cls-28" d="M211.69,139.26a11.08,11.08,0,0,0-3.27-5.39l-14.81,16.55a11.18,11.18,0,0,0,5.72,2.65l12.36-13.81Zm-4.6-6.43-14.65,16.38a10.67,10.67,0,0,1-1.66-2.67l13.47-15.06A10.75,10.75,0,0,1,207.09,132.83Z"/><path class="cls-28" d="M241.63,132.1,227.39,148a10.91,10.91,0,0,1-1.34-3l12.42-13.88a10.89,10.89,0,0,1,3.16,1Zm5.34,5.61a11.12,11.12,0,0,0-3.86-4.74l-14.7,16.43a11.07,11.07,0,0,0,5.14,3.31Z"/><path class="cls-29" d="M226.94,179.8a35.59,35.59,0,0,0,26.67-34.33V113.24a35.39,35.39,0,0,0-12.48-26.93c-23.27,2.45-47.64,4.56-47.64,4.56s-13.36,24.94-6,30.2l1.23-1.39h45.66c6.88,0,12.22,1.61,12.22,10v24.41C246.61,159.45,239.33,175.61,226.94,179.8Z"/><path class="cls-26" d="M238.26,147.22a4.66,4.66,0,1,0,4.57,4.75A4.65,4.65,0,0,0,238.26,147.22Z"/><path class="cls-26" d="M198.18,146.46a4.66,4.66,0,1,0,4.58,4.75A4.65,4.65,0,0,0,198.18,146.46Z"/><path class="cls-13" d="M196.18,128.12a9.32,9.32,0,0,1,8.75,0,1.15,1.15,0,0,0,1.18-2,11.65,11.65,0,0,0-11,0,1.15,1.15,0,0,0-.52,1.54A1.16,1.16,0,0,0,196.18,128.12Z"/><path class="cls-13" d="M197.21,141.52a3.39,3.39,0,0,1,6.77,0,1.16,1.16,0,1,0,2.31,0,5.7,5.7,0,0,0-11.4,0,1.16,1.16,0,1,0,2.32,0Z"/><path class="cls-13" d="M240.48,141.52a1.16,1.16,0,1,0,2.31,0,5.7,5.7,0,1,0-11.39,0,1.16,1.16,0,1,0,2.31,0,3.38,3.38,0,0,1,5.78-2.39A3.34,3.34,0,0,1,240.48,141.52Z"/><path class="cls-13" d="M241.51,128.12a1.15,1.15,0,1,0,1-2.06,11.65,11.65,0,0,0-11,0,1.15,1.15,0,0,0,1.18,2A9.32,9.32,0,0,1,241.51,128.12Z"/><path class="cls-9" d="M152.09,299.61l-1.81,1.73,25.88,13.81-5.79,9.05h-29.5s-6.74-3-6.2-6.09S141.62,297.69,152.09,299.61Z"/><path class="cls-24" d="M166.25,309.86l9.91,5.29-5.79,9.05h-29.5s-6.74-3-6.2-6.09a31.62,31.62,0,0,1,2.63-7,26,26,0,0,0,18.33,3.21C160.78,313.18,164.1,311.55,166.25,309.86Z"/><path class="cls-29" d="M187.07,314.51s-5-3.33-7.66-4.94a7,7,0,0,0-7.19.08,113,113,0,0,0-10.26,8.2c-1.15,1.22,5.51,3.89,6.2,3.89S187.07,314.51,187.07,314.51Z"/><path class="cls-9" d="M284.12,299.61l1.81,1.73-25.88,13.81,5.78,9.05h29.51s6.74-3,6.2-6.09S294.59,297.69,284.12,299.61Z"/><path class="cls-24" d="M270.18,309.74l-10.13,5.41,5.78,9.05h29.51s6.74-3,6.2-6.09a31.3,31.3,0,0,0-2.56-6.87,25.93,25.93,0,0,1-18.05,3.05C275.67,313.16,272.31,311.47,270.18,309.74Z"/><path class="cls-29" d="M249.14,314.51s5-3.33,7.66-4.94a7,7,0,0,1,7.19.08,114.44,114.44,0,0,1,10.26,8.2c1.15,1.22-5.51,3.89-6.2,3.89S249.14,314.51,249.14,314.51Z"/><path class="cls-11" d="M151.65,326H284.38a4.5,4.5,0,0,0,4.5-4.49h0a4.51,4.51,0,0,0-4.5-4.5H151.65a4.51,4.51,0,0,0-4.49,4.5h0A4.5,4.5,0,0,0,151.65,326Z"/><path class="cls-11" d="M249.88,130v4.57c0,2.19,2,4.65,3.73,4.65v-5s.71-3.68,5.26-3.68c13.94-16,12.11-41.49-2.78-54.69s-46.87-14-52.45-12.18S192.31,75,192.31,75s-4.74-4.23-9.14-2-19.12,30-19.12,36.88,13.43,20.69,13.43,20.69c4.55,0,5.26,3.68,5.26,3.68v5c1.69,0,3.73-2.46,3.73-4.65V130s4-6.28,4-12.88h9.46a2.42,2.42,0,0,0,2-2c.2-1,.81-7.36,1-8.88s.71-2.29,1-1.88.51,5.69,1,9.09,2.77,3.62,2.84,3.62h39.74S247.84,125.16,249.88,130Z"/><path class="cls-21" d="M266,90.81a36.18,36.18,0,0,0-8.56-13.67c-9.68,11.36-33.51,30.92-61.61-7-.56.68-1.07,1.35-1.52,2,3.43,7.87,10.3,19.43,22.86,26.65C234.91,108.88,257.57,104.51,266,90.81Z"/><path class="cls-13" d="M249.88,130v4.57c0,2.19,2,4.65,3.73,4.65v-5s.71-3.68,5.26-3.68c8.66-10,11.23-23.54,8.37-35.57-1.1,5.87-5.56,17.27-23.51,17.27-24.15,0-38.44-12.7-39.91-14a1.54,1.54,0,0,0-2.49.31s-8.24,12.54-22.45,8.73c-6-1.61-8.54-6.89-9.5-12.47-3,6.37-5.33,12.34-5.33,15.07,0,6.94,13.43,20.69,13.43,20.69,4.55,0,5.26,3.68,5.26,3.68v5c1.69,0,3.73-2.46,3.73-4.65V130s4-6.28,4-12.88h9.46a2.42,2.42,0,0,0,2-2c.2-1,.81-7.36,1-8.88s.71-2.29,1-1.88.51,5.69,1,9.09,2.77,3.62,2.84,3.62h39.74S247.84,125.16,249.88,130Z"/><path class="cls-13" d="M228.6,156.07a10.07,10.07,0,1,1-20.13-.38h0a1.73,1.73,0,0,1,1.77-1.7l16.62.31a1.73,1.73,0,0,1,1.7,1.77Z"/><path class="cls-30" d="M224.71,163.84a10.07,10.07,0,0,1-11.65.49,6.27,6.27,0,0,1,5.82-3.61A6.36,6.36,0,0,1,224.71,163.84Z"/><path class="cls-2" d="M210.82,154l15.62.29c.22,1.73-.61,3.46-1.78,3.82-1.43.43-12.73-.07-13.51-1C210.77,156.7,210.74,155.31,210.82,154Z"/><path class="cls-31" d="M215.42,147.18s-1.39,2.53-.95,3.88,2.33.63,2.53-.56a9.63,9.63,0,0,0-.52-3.67C216.35,146.57,215.75,146.47,215.42,147.18Z"/><rect x="209.68" y="290.82" width="18.25" height="28.26"/><path class="cls-11" d="M178.19,326.33h79.66a5.83,5.83,0,0,0,5.8-5.81h0a5.82,5.82,0,0,0-5.8-5.81H178.19a5.82,5.82,0,0,0-5.81,5.81h0A5.83,5.83,0,0,0,178.19,326.33Z"/><path class="cls-32" d="M142.66,214.19h88.27V306H154.25a6.91,6.91,0,0,1-6.64-5.9l-10.11-80A5.12,5.12,0,0,1,142.66,214.19Z"/><path class="cls-33" d="M142.66,214.19h88.27V306H154.25a6.91,6.91,0,0,1-6.64-5.9l-10.11-80A5.12,5.12,0,0,1,142.66,214.19Z"/><path class="cls-32" d="M149,269.92h81.91v4.57H149.59a2.68,2.68,0,0,1-2.57-2.28h0A2,2,0,0,1,149,269.92Z"/><path class="cls-32" d="M151.18,276.87h79.75V302.7H154.44a4.19,4.19,0,0,1-4-3.58l-2.36-18.67A3.09,3.09,0,0,1,151.18,276.87Z"/><path class="cls-11" d="M155.7,232.79h19.47a2.57,2.57,0,0,1,2.46,2.19l3.56,28.21a1.89,1.89,0,0,1-1.91,2.19H159.81a2.57,2.57,0,0,1-2.46-2.19L153.79,235A1.9,1.9,0,0,1,155.7,232.79Z"/><path class="cls-32" d="M153.12,232.79h19.46a2.58,2.58,0,0,1,2.47,2.19l3.56,28.21a1.9,1.9,0,0,1-1.91,2.19H157.23a2.57,2.57,0,0,1-2.46-2.19L151.21,235A1.89,1.89,0,0,1,153.12,232.79Z"/><path class="cls-11" d="M156.73,249.08h0a1.38,1.38,0,0,1,1.32,1.17l1.23,9.79a1,1,0,0,1-1,1.16h0A1.36,1.36,0,0,1,157,260l-1.23-9.79A1,1,0,0,1,156.73,249.08Z"/><path class="cls-11" d="M162.23,249.08h0a1.37,1.37,0,0,1,1.31,1.17l1.24,9.79a1,1,0,0,1-1,1.16h0a1.36,1.36,0,0,1-1.31-1.16l-1.23-9.79A1,1,0,0,1,162.23,249.08Z"/><path class="cls-11" d="M167.73,249.08h0a1.37,1.37,0,0,1,1.31,1.17l1.24,9.79a1,1,0,0,1-1,1.16h0A1.36,1.36,0,0,1,168,260l-1.24-9.79A1,1,0,0,1,167.73,249.08Z"/><path class="cls-11" d="M173.23,249.08h0a1.37,1.37,0,0,1,1.31,1.17l1.24,9.79a1,1,0,0,1-1,1.16h0a1.36,1.36,0,0,1-1.31-1.16l-1.24-9.79A1,1,0,0,1,173.23,249.08Z"/><path class="cls-32" d="M142.87,221.24h88.06v4.57H143.45a2.68,2.68,0,0,1-2.58-2.28h0A2,2,0,0,1,142.87,221.24Z"/><path class="cls-11" d="M152.09,279h78.84v1.78H152.32a1,1,0,0,1-1-.89h0a.77.77,0,0,1,.78-.89Zm2.42,19.12h76.42v1.79h-76.2a1.07,1.07,0,0,1-1-.9h0a.77.77,0,0,1,.79-.89Zm-.49-3.83h76.91V296H154.25a1,1,0,0,1-1-.89h0a.78.78,0,0,1,.78-.9Zm-.48-3.82h77.39v1.79H153.77a1,1,0,0,1-1-.9h0a.77.77,0,0,1,.78-.89Zm-.48-3.83h77.87v1.79H153.28a1.06,1.06,0,0,1-1-.89h0a.78.78,0,0,1,.79-.9Zm-.49-3.82h78.36v1.79H152.8a1.06,1.06,0,0,1-1-.89h0A.78.78,0,0,1,152.57,282.78Z"/><path class="cls-32" d="M185.83,230.68h45.1v34H190.12a2.22,2.22,0,0,1-2.13-1.88l-3.81-30.21A1.63,1.63,0,0,1,185.83,230.68Z"/><path class="cls-2" d="M189.06,235.05h27a1.17,1.17,0,0,1,1.12,1h0a.85.85,0,0,1-.87,1h-27a1.16,1.16,0,0,1-1.12-1h0A.86.86,0,0,1,189.06,235.05Z"/><path class="cls-11" d="M189.69,240h41.24v2h-41a1.16,1.16,0,0,1-1.12-1h0A.85.85,0,0,1,189.69,240Z"/><path class="cls-11" d="M190.33,245.08h40.6v2H190.58a1.17,1.17,0,0,1-1.12-1h0A.86.86,0,0,1,190.33,245.08Z"/><path class="cls-11" d="M191,250.15h40v2H191.22a1.17,1.17,0,0,1-1.12-1h0A.86.86,0,0,1,191,250.15Z"/><path class="cls-11" d="M191.61,255.21h39.32v2H191.86a1.17,1.17,0,0,1-1.12-1h0A.86.86,0,0,1,191.61,255.21Z"/><path class="cls-11" d="M192.25,260.28h38.68v2H192.5a1.17,1.17,0,0,1-1.12-1h0A.86.86,0,0,1,192.25,260.28Z"/><path class="cls-34" d="M279.68,287.43s2-3.23,4.75-3.37,2.68,3.23,1.74,3.64S279.68,287.43,279.68,287.43Z"/><path class="cls-34" d="M280.12,293.19l-.69-.15h0l-2.35-.52c.26,8.27,9.08,7.08,7.89.71l-3.87-.86-.15.43a.63.63,0,0,1-.7.42Z"/><path class="cls-32" d="M228.72,214.19H295a5.11,5.11,0,0,1,5.16,5.9l-10,80a6.92,6.92,0,0,1-6.64,5.9H228.72Z"/><path class="cls-33" d="M228.72,214.19h62.36a5.12,5.12,0,0,1,5.16,5.9l-10,80a6.9,6.9,0,0,1-6.63,5.9H228.72Z"/><path class="cls-32" d="M228.72,269.92h55.17a2,2,0,0,1,2,2.29h0a2.68,2.68,0,0,1-2.57,2.28h-54.6Z"/><path class="cls-32" d="M228.72,276.87h53a3.1,3.1,0,0,1,3.13,3.58l-2.34,18.67a4.19,4.19,0,0,1-4,3.58H228.72Z"/><path class="cls-32" d="M228.72,221.24H290a2,2,0,0,1,2,2.29h0a2.66,2.66,0,0,1-2.57,2.28H228.72Z"/><path class="cls-11" d="M228.72,279h52.11a.77.77,0,0,1,.78.89h0a1,1,0,0,1-1,.89H228.72V279Zm0,19.12h49.71a.77.77,0,0,1,.78.89h0a1,1,0,0,1-1,.9H228.72v-1.79Zm0-3.83h50.19a.78.78,0,0,1,.78.9h0a1,1,0,0,1-1,.89h-50v-1.79Zm0-3.82h50.67a.77.77,0,0,1,.78.89h0a1,1,0,0,1-1,.9H228.72v-1.79Zm0-3.83h51.15a.78.78,0,0,1,.78.9h0a1,1,0,0,1-1,.89H228.72V286.6Zm0-3.82h51.63a.78.78,0,0,1,.78.9h0a1,1,0,0,1-1,.89h-51.4Z"/><path class="cls-11" d="M277.54,247.1h2a1.14,1.14,0,0,1,1.16,1.32l-.73,5.84a1.56,1.56,0,0,1-1.49,1.33h-2a1.15,1.15,0,0,1-1.16-1.33l.73-5.84A1.54,1.54,0,0,1,277.54,247.1Z"/><path class="cls-32" d="M278.23,234.55H282a2.16,2.16,0,0,1,2.17,2.49L282.81,248a2.91,2.91,0,0,1-2.79,2.48h-3.78a2.15,2.15,0,0,1-2.17-2.48L275.44,237A2.91,2.91,0,0,1,278.23,234.55Z"/><path class="cls-32" d="M228.72,230.68h37.39a1.62,1.62,0,0,1,1.64,1.88L264,262.77a2.2,2.2,0,0,1-2.12,1.88H228.72Z"/><path class="cls-11" d="M228.72,240H260a.86.86,0,0,1,.87,1h0a1.16,1.16,0,0,1-1.12,1h-31Z"/><path class="cls-11" d="M228.72,245.08h30.61a.86.86,0,0,1,.87,1h0a1.17,1.17,0,0,1-1.12,1H228.72Z"/><path class="cls-11" d="M228.72,250.15h30a.86.86,0,0,1,.87,1h0a1.17,1.17,0,0,1-1.12,1H228.72Z"/><path class="cls-11" d="M228.72,255.21h29.35a.86.86,0,0,1,.86,1h0a1.16,1.16,0,0,1-1.11,1h-29.1Z"/><path class="cls-11" d="M228.72,260.28h28.71a.86.86,0,0,1,.87,1h0a1.17,1.17,0,0,1-1.12,1H228.72Z"/><path class="cls-33" d="M260.59,235.05H250a1.17,1.17,0,0,0-1.12,1h0a.85.85,0,0,0,.87,1h10.6a1.16,1.16,0,0,0,1.12-1h0A.86.86,0,0,0,260.59,235.05Z"/><path class="cls-33" d="M246.48,235.05H221.36a1.17,1.17,0,0,0-1.12,1h0a.85.85,0,0,0,.87,1h25.12a1.16,1.16,0,0,0,1.12-1h0A.86.86,0,0,0,246.48,235.05Z"/><path class="cls-2" d="M123,203a1.11,1.11,0,1,0-1.1-1.1A1.11,1.11,0,0,0,123,203Z"/><path class="cls-2" d="M126.87,251.58a1.36,1.36,0,1,0-1.11-1.34A1.24,1.24,0,0,0,126.87,251.58Z"/><path class="cls-13" d="M201,129.81a12.12,12.12,0,0,1,11.85,9.57,26.54,26.54,0,0,1,12.22,0,12.14,12.14,0,0,1,20.44-6,12.46,12.46,0,0,1,2.47,3.57l4.7-3.42a1,1,0,0,1,1.4.22,1,1,0,0,1-.22,1.41l-5.18,3.77a12.57,12.57,0,0,1,.38,3,12.13,12.13,0,1,1-24.26,0c0-.19,0-.37,0-.56a24.29,24.29,0,0,0-11.7,0c0,.18,0,.36,0,.55a12.13,12.13,0,1,1-24.25,0,12.5,12.5,0,0,1,.39-3.08l-5.11-3.72a1,1,0,0,1-.22-1.41,1,1,0,0,1,1.4-.22l4.64,3.38a12.11,12.11,0,0,1,11-7.08Zm43.08,5a10.12,10.12,0,1,0,3,7.15,10.08,10.08,0,0,0-3-7.15Zm-35.94,0a10.12,10.12,0,1,0,3,7.15A10.06,10.06,0,0,0,208.09,134.79Z"/><path class="cls-35" d="M188.58,46.75a5.3,5.3,0,1,0,1.55,3.75,5.3,5.3,0,0,0-1.55-3.75Zm-1.14-5.24a9.28,9.28,0,0,1,2.07.88,9.8,9.8,0,0,1,1.82,1.38.33.33,0,0,0,.39,0l2.45-1.42h0a.55.55,0,0,1,.45,0,.6.6,0,0,1,.37.28h0l1.73,3a.62.62,0,0,1,.06.46.59.59,0,0,1-.29.37h0l-2.44,1.41a.33.33,0,0,0-.16.36h0a9.9,9.9,0,0,1,.21,1.11,9.4,9.4,0,0,1,0,2.29,9.9,9.9,0,0,1-.21,1.11.33.33,0,0,0,.18.37l2.43,1.41h0a.59.59,0,0,1,.29.37.62.62,0,0,1-.06.46l-1.74,3h0a.62.62,0,0,1-.37.29.65.65,0,0,1-.47-.06h0l-2.44-1.41a.33.33,0,0,0-.39,0,10.21,10.21,0,0,1-1.82,1.37,9.43,9.43,0,0,1-2.09.88.32.32,0,0,0-.23.31v2.84a.61.61,0,0,1-.61.61H183.1a.61.61,0,0,1-.61-.61V59.79a.32.32,0,0,0-.25-.31,9.28,9.28,0,0,1-2.07-.88,10.21,10.21,0,0,1-1.82-1.37.32.32,0,0,0-.4,0l-2.44,1.41a.65.65,0,0,1-.47.06.62.62,0,0,1-.37-.29h0l-1.73-3h0a.62.62,0,0,1-.06-.46.63.63,0,0,1,.29-.37l2.45-1.42a.31.31,0,0,0,.15-.36h0a9.9,9.9,0,0,1-.21-1.11,9.4,9.4,0,0,1,0-2.29,9.9,9.9,0,0,1,.21-1.11.34.34,0,0,0-.18-.37l-2.43-1.41a.63.63,0,0,1-.29-.37.62.62,0,0,1,.06-.46v0l1.73-3h0a.64.64,0,0,1,.84-.23h0L178,43.81a.33.33,0,0,0,.4-.05,9.79,9.79,0,0,1,1.81-1.37,9.43,9.43,0,0,1,2.09-.88.32.32,0,0,0,.23-.31V38.36a.61.61,0,0,1,.61-.61h3.48a.61.61,0,0,1,.61.61V41.2A.31.31,0,0,0,187.44,41.51Z"/><path class="cls-35" d="M146.16,65.59a11.45,11.45,0,0,0-12.47-2.48,11.4,11.4,0,0,0-6.2,6.2,11.44,11.44,0,0,0,18.67,12.47,11.43,11.43,0,0,0,3.36-8.09,11.43,11.43,0,0,0-3.36-8.1ZM142,64.08a10.46,10.46,0,0,1,3.37,2.26A10.39,10.39,0,1,1,130.72,81a10.38,10.38,0,0,1,3.37-16.94,10.46,10.46,0,0,1,7.95,0Zm1.27-8.42a19.58,19.58,0,0,1,2.11.75,20,20,0,0,1,2,1,19.18,19.18,0,0,1,1.91,1.27,17.86,17.86,0,0,1,1.75,1.49,1.23,1.23,0,0,0,.68.32,1.16,1.16,0,0,0,.75-.15c1.68-1,3.45-1.93,5.1-2.94a.75.75,0,0,1,.24-.08.86.86,0,0,1,.28,0,.71.71,0,0,1,.26.13.64.64,0,0,1,.19.21c1.22,1.85,2.45,4.25,3.59,6.22a.62.62,0,0,1,.09.26.93.93,0,0,1,0,.29.91.91,0,0,1-.13.26.74.74,0,0,1-.21.18c-1.51,1-3.46,2-5.06,2.93a1.22,1.22,0,0,0-.51.57,1.83,1.83,0,0,0-.08.25l-.1,0,.12.47c.09.38.17.75.24,1.12s.12.73.17,1.13.08.76.1,1.14,0,.75,0,1.15,0,.78,0,1.15-.05.75-.1,1.14-.11.77-.17,1.13-.15.74-.24,1.11a1.18,1.18,0,0,0,.61,1.35l4.49,2.59h0l.53.31a.77.77,0,0,1,.21.19.75.75,0,0,1,.13.25,1,1,0,0,1,0,.29.72.72,0,0,1-.09.27l-3.32,5.75h0l-.27.47a.76.76,0,0,1-.19.21.69.69,0,0,1-.26.12.54.54,0,0,1-.28,0,.72.72,0,0,1-.27-.09c-1.6-1-3.42-2-5.07-2.93a1.24,1.24,0,0,0-.74-.15,1.15,1.15,0,0,0-.69.33h0a17.86,17.86,0,0,1-1.75,1.49,19.53,19.53,0,0,1-1.9,1.26,18.94,18.94,0,0,1-4.19,1.78,1.19,1.19,0,0,0-.87,1.16v5.85a.76.76,0,0,1,0,.27.74.74,0,0,1-.4.4.76.76,0,0,1-.27,0h-7.18a.87.87,0,0,1-.28,0,.76.76,0,0,1-.39-.4.6.6,0,0,1-.06-.27V92.88a1.23,1.23,0,0,0-.26-.74,1.2,1.2,0,0,0-.66-.42,17.7,17.7,0,0,1-2.11-.76,16.68,16.68,0,0,1-2-1,18.52,18.52,0,0,1-1.91-1.26A20.69,20.69,0,0,1,125,87.2a1.2,1.2,0,0,0-1.49-.14l-5,2.89a.62.62,0,0,1-.26.09.58.58,0,0,1-.29,0,.88.88,0,0,1-.26-.12.91.91,0,0,1-.18-.21c-1.19-2.08-2.4-4.15-3.59-6.22a.75.75,0,0,1,0-.81.76.76,0,0,1,.21-.19l5.07-2.93a1.2,1.2,0,0,0,.51-.56l.06-.2.13,0-.13-.54q-.13-.56-.24-1.11c-.07-.36-.13-.74-.17-1.13s-.09-.77-.11-1.14,0-.75,0-1.15,0-.79,0-1.15.06-.76.11-1.14.1-.78.17-1.13.15-.74.24-1.12a1.19,1.19,0,0,0-.08-.79,1.27,1.27,0,0,0-.54-.56l-5-2.9a.72.72,0,0,1-.21-.18.69.69,0,0,1-.12-.26.7.7,0,0,1,0-.29.62.62,0,0,1,.09-.26c1.22-1.82,2.45-4.26,3.59-6.22a.74.74,0,0,1,.18-.21.91.91,0,0,1,.26-.13,1,1,0,0,1,.29,0,.62.62,0,0,1,.26.09l5.08,2.93a1.14,1.14,0,0,0,.76.15,1.17,1.17,0,0,0,.68-.34,18.88,18.88,0,0,1,1.74-1.48,20.85,20.85,0,0,1,1.9-1.26,21.48,21.48,0,0,1,2-1,17.09,17.09,0,0,1,2.15-.76,1.22,1.22,0,0,0,.87-1.16V48.64a.67.67,0,0,1,.06-.28.69.69,0,0,1,.16-.23.53.53,0,0,1,.23-.16.67.67,0,0,1,.28-.06h7.18a.6.6,0,0,1,.27.06.63.63,0,0,1,.24.16.72.72,0,0,1,.21.51v5.85a1.19,1.19,0,0,0,.26.74,1.21,1.21,0,0,0,.67.43Zm2.52-.22A18.71,18.71,0,0,1,148,56.51a19.42,19.42,0,0,1,2,1.33,21.17,21.17,0,0,1,1.84,1.57.09.09,0,0,0,.08,0,.14.14,0,0,0,.09,0l5.12-3a1.6,1.6,0,0,1,.64-.2,1.69,1.69,0,0,1,.67,0,1.82,1.82,0,0,1,1.08.83c1.24,2,2.41,4.17,3.59,6.22a1.63,1.63,0,0,1,.23.66,1.78,1.78,0,0,1-.05.69,1.69,1.69,0,0,1-.31.63,1.78,1.78,0,0,1-.52.46c-1.63,1-3.4,2-5.07,2.93,0,0,0,0-.06.06a.14.14,0,0,0,0,.09l.11.48h0c0,.23.09.46.14.7.07.4.13.8.18,1.19s.08.79.11,1.2,0,.82,0,1.22,0,.8,0,1.21-.06.81-.11,1.2-.11.79-.18,1.2-.16.79-.26,1.17a.25.25,0,0,0,0,.09.12.12,0,0,0,.07.07c1.86,1,3.75,2.17,5.59,3.23l-.06.08L163,82a1.77,1.77,0,0,1,.31.63,1.82,1.82,0,0,1,.05.7,1.68,1.68,0,0,1-.23.66l-3.85,6.68-.08,0a.63.63,0,0,1-.12.1,1.73,1.73,0,0,1-1.32.35,1.85,1.85,0,0,1-.64-.21c-1.69-.9-3.42-2-5.09-2.94l-.09,0a.2.2,0,0,0-.08,0,19.36,19.36,0,0,1-6,4,18.59,18.59,0,0,1-2.27.81l-.08,0a.14.14,0,0,0,0,.09v5.85a1.72,1.72,0,0,1-.13.68,1.8,1.8,0,0,1-.39.58,1.91,1.91,0,0,1-.58.39,1.72,1.72,0,0,1-.68.13h-7.18a1.72,1.72,0,0,1-.68-.13,2,2,0,0,1-.59-.39,1.77,1.77,0,0,1-.38-.58,1.72,1.72,0,0,1-.14-.68V92.88a.11.11,0,0,0,0-.08.09.09,0,0,0-.08,0h0a20.82,20.82,0,0,1-2.26-.8,20.34,20.34,0,0,1-2.14-1.07A20.94,20.94,0,0,1,124.3,88a.12.12,0,0,0-.08,0l-.09,0-5.07,2.93a1.84,1.84,0,0,1-1.35.18,1.78,1.78,0,0,1-1.08-.82c-1.33-2.14-2.59-4.49-3.86-6.68l.07,0,0-.16a1.82,1.82,0,0,1,0-.7,1.92,1.92,0,0,1,.3-.63,1.79,1.79,0,0,1,.53-.45l5.06-2.93a.11.11,0,0,0,.06-.07.14.14,0,0,0,0-.09l-.13-.53h0c0-.2-.09-.42-.13-.63-.08-.41-.14-.81-.19-1.2s-.08-.79-.1-1.2,0-.82,0-1.21,0-.8,0-1.21.06-.82.1-1.21.11-.79.19-1.19.16-.8.25-1.18a.14.14,0,0,0,0-.09.13.13,0,0,0-.06-.07l-5.07-2.92a1.78,1.78,0,0,1-.52-.46,1.83,1.83,0,0,1-.3-.63,1.77,1.77,0,0,1,0-.69,2,2,0,0,1,.21-.65c1.21-2.23,2.59-4.48,3.87-6.7l.07.05.12-.1a1.69,1.69,0,0,1,.63-.31,1.78,1.78,0,0,1,.69,0,1.72,1.72,0,0,1,.66.22l.38.22h0l4.71,2.72a.13.13,0,0,0,.09,0,.12.12,0,0,0,.08,0h0a22.8,22.8,0,0,1,1.83-1.56,20,20,0,0,1,4.17-2.41,19,19,0,0,1,2.27-.8.13.13,0,0,0,.07-.05.16.16,0,0,0,0-.09V48.64a1.72,1.72,0,0,1,.14-.68,1.82,1.82,0,0,1,1-1,1.72,1.72,0,0,1,.68-.14h7.18a1.72,1.72,0,0,1,.68.14,1.74,1.74,0,0,1,.58.39,1.78,1.78,0,0,1,.52,1.26v5.85a.24.24,0,0,0,0,.09l.08.05h0A18.74,18.74,0,0,1,145.83,55.44Z"/><path class="cls-11" d="M89.75,329.61H346.28a5.87,5.87,0,0,1,5.86,5.85h0a5.87,5.87,0,0,1-5.86,5.86H89.75a5.87,5.87,0,0,1-5.86-5.86h0A5.87,5.87,0,0,1,89.75,329.61Z"/><path class="cls-36" d="M77.28,320.52H358.75a7.49,7.49,0,0,1,7.48,7.47h0a7.49,7.49,0,0,1-7.48,7.47H77.28A7.49,7.49,0,0,1,69.81,328h0A7.49,7.49,0,0,1,77.28,320.52Z"/><rect class="cls-37" x="247.89" y="320.52" width="15.55" height="14.94"/><rect class="cls-37" x="271.52" y="320.52" width="8.08" height="14.94"/><rect class="cls-37" x="288.08" y="320.52" width="4.04" height="14.94"/><rect class="cls-37" x="305.95" y="320.52" width="17.39" height="14.94"/><rect class="cls-37" x="336.45" y="320.52" width="8.7" height="14.94"/><path class="cls-38" d="M77.89,322.94h136.8a4.46,4.46,0,0,1,4.44,4.45h0a4.46,4.46,0,0,1-4.44,4.44H77.89a4.46,4.46,0,0,1-4.45-4.44h0A4.46,4.46,0,0,1,77.89,322.94Z"/></g></g></svg>